<?xml version="1.0" encoding="UTF-8"?>
<svg width="572px" height="317px" viewBox="0 0 572 317" version="1.1" xmlns="http://www.w3.org/2000/svg" xmlns:xlink="http://www.w3.org/1999/xlink">
    <!-- Generator: Sketch 56 (81588) - https://sketch.com -->
    <title>Group</title>
    <desc>Created with Sketch.</desc>
    <g id="Page-1" stroke="none" stroke-width="1" fill="none" fill-rule="evenodd">
        <g id="Custom-Preset" transform="translate(-48.000000, -49.000000)">
            <g id="Group" transform="translate(48.000000, 49.000000)">
                <g id="extinction-rebellion" fill="#131111">
                    <g id="Group-2">
                        <g id="Group-729">
                            <path d="M551,231 L551,93.5454545 L397.048333,109.952703 L397.048333,211.549032 C397.048333,211.549032 397.170887,213.606758 393.917273,213.606758 L387.781661,213.606758 L381.650003,213.606758 C378.39639,213.606758 378.518944,211.549032 378.518944,211.549032 L378.518944,165.88544 L378.518944,111.932484 L372.023576,112.62229 L372.023576,211.549032 C372.023576,211.549032 372.146131,213.606758 368.892517,213.606758 L362.760859,213.606758 L356.621294,213.606758 C353.371633,213.606758 353.494187,211.549032 353.494187,211.549032 L353.494187,165.88544 L353.494187,114.594278 L263.58692,124.181411 L263.58692,156.715308 C264.377591,156.695822 265.919401,156.434709 267.382143,154.895311 C269.44975,152.708977 273.399154,148.772797 277.732035,148.772797 C282.057008,148.772797 294.09103,152.116602 294.09103,179.280145 C294.09103,206.443689 282.780473,214.507013 277.732035,214.507013 C274.960731,214.507013 271.975945,214.655107 268.706518,211.778967 C264.974548,208.509209 265.124776,208.13118 264.156203,208.267583 C263.946675,208.302657 263.58692,208.481929 263.58692,208.883341 L263.58692,211.549032 C263.58692,211.549032 263.709474,213.606758 260.463767,213.606758 L254.328155,213.606758 L248.18859,213.606758 C244.942883,213.606758 245.065438,211.549032 245.065438,211.549032 L245.065438,165.88544 L245.065438,126.153398 L40.3170732,147.977766 L40.3170732,231 L551,231 Z M187.812907,167.358584 C187.812907,167.358584 187.872207,168.964234 186.615039,168.964234 C185.527866,168.964234 172.32365,168.017213 172.319697,177.495224 L172.319697,211.549032 C172.319697,211.549032 172.438298,213.602861 169.188637,213.602861 L163.056979,213.602861 L156.917414,213.602861 C153.671707,213.602861 153.790308,211.549032 153.790308,211.549032 L153.790308,167.662567 L153.790308,165.88544 L153.790308,151.956816 C153.790308,150.156306 156.19395,150.343372 156.19395,150.343372 L163.056979,150.343372 L169.912102,150.343372 C169.912102,150.343372 172.319697,150.156306 172.319697,151.956816 L172.319697,156.742588 C173.122229,156.688027 174.751012,156.387942 176.142594,154.848545 C178.071833,152.708977 181.558695,148.79618 186.615039,148.79618 C187.650819,148.79618 187.812907,149.392453 187.812907,150.335577 L187.812907,167.358584 Z M239.503063,186.754991 C238.898199,188.750362 235.775046,188.594474 235.775046,188.594474 L210.505182,188.594474 C210.505182,193.641359 210.76215,199.272825 216.680327,199.272825 C220.890653,199.272825 221.708998,196.486321 222.068754,195.180756 C222.507577,193.520545 224.887498,193.754378 224.887498,193.754378 L235.715746,193.754378 C238.060087,193.754378 237.941486,195.531505 237.941486,195.531505 C237.941486,195.531505 239.143307,215.227997 215.921282,215.227997 C192.699257,215.227997 191.438136,186.754991 191.438136,186.754991 C191.438136,186.754991 186.868054,148.983246 215.616874,148.983246 C244.618708,148.983246 240.179087,184.545274 239.503063,186.754991 L239.503063,186.754991 Z M346.876266,186.754991 C346.267449,188.750362 343.144296,188.594474 343.144296,188.594474 L317.874432,188.594474 C317.874432,193.641359 318.1314,199.272825 324.045624,199.272825 C328.25595,199.272825 329.074295,196.486321 329.438004,195.180756 C329.872873,193.520545 332.252795,193.754378 332.252795,193.754378 L343.081043,193.754378 C345.429337,193.754378 345.306783,195.531505 345.306783,195.531505 C345.306783,195.531505 346.508604,215.227997 323.286579,215.227997 C300.068507,215.227997 298.803433,186.754991 298.803433,186.754991 C298.803433,186.754991 294.233351,148.983246 322.990077,148.983246 C351.984005,148.983246 347.544384,184.545274 346.876266,186.754991 L346.876266,186.754991 Z M405.690373,151.964611 C405.690373,150.156306 408.094015,150.351166 408.094015,150.351166 L414.957044,150.351166 L421.812167,150.351166 C421.812167,150.351166 424.219762,150.156306 424.219762,151.964611 L424.219762,211.549032 C424.219762,211.549032 424.338363,213.606758 421.088703,213.606758 L414.957044,213.606758 L408.817479,213.606758 C405.571772,213.606758 405.690373,211.549032 405.690373,211.549032 L405.690373,165.88544 L405.690373,151.964611 Z M426.085747,132.856597 C426.085747,138.780354 421.100563,143.585612 414.957044,143.585612 C408.813526,143.585612 403.824388,138.780354 403.824388,132.856597 C403.824388,126.925046 408.813526,122.119788 414.957044,122.119788 C421.100563,122.119788 426.085747,126.925046 426.085747,132.856597 L426.085747,132.856597 Z M480.266519,182.179669 L480.266519,182.183566 C480.266519,213.801619 460.661816,214.639519 457.269835,214.639519 C456.858686,214.639519 456.309169,214.659005 455.708259,214.659005 C455.059908,214.659005 454.383884,214.612238 453.976688,214.612238 C450.584707,214.612238 431.019538,211.74779 431.019538,182.183566 L431.019538,182.179669 L431.019538,182.16408 C431.027445,148.153141 452.869748,148.979349 455.127115,148.979349 C455.281296,148.979349 455.46315,148.991041 455.641052,149.002732 C455.822906,148.991041 456.004761,148.979349 456.154988,148.979349 C458.420262,148.979349 480.254659,148.153141 480.266519,182.16408 L480.266519,182.179669 L480.266519,182.179669 Z M530.442538,165.88544 L530.442538,211.549032 C530.442538,211.549032 530.565092,213.606758 527.311479,213.606758 L521.171914,213.606758 L516.044409,213.606758 C512.790795,213.606758 512.913349,211.549032 512.913349,211.549032 L512.913349,172.409367 C512.913349,172.409367 513.249384,168.138026 510.027398,168.138026 C506.066133,168.138026 504.698271,171.057035 504.690364,172.374292 L504.690364,211.549032 C504.690364,211.549032 504.812918,213.606758 501.563258,213.606758 L495.4316,213.606758 L489.292035,213.606758 C486.042375,213.606758 486.160975,211.549032 486.160975,211.549032 L486.160975,165.88544 L486.160975,151.964611 C486.160975,150.156306 488.56857,150.351166 488.56857,150.351166 L495.4316,150.351166 L502.286723,150.351166 C502.286723,150.351166 504.690364,150.156306 504.690364,151.964611 L504.690364,156.734794 C506.125433,156.680233 507.256094,156.025502 507.627709,155.752697 C508.78209,154.903106 513.162411,148.803975 519.009427,148.803975 C531.759007,148.803975 530.442538,165.88544 530.442538,165.88544 L530.442538,165.88544 Z M460.67763,181.318385 C460.67763,180.99102 460.72507,176.688502 460.357408,172.257376 C459.981839,167.650875 455.716165,167.896399 455.716165,167.896399 C455.716165,167.896399 451.450492,167.650875 451.07097,172.257376 C450.703307,176.688502 450.750748,180.99102 450.750748,181.318385 C450.750748,181.637957 450.703307,186.384757 451.07097,190.815883 C451.288404,193.481573 452.806494,194.522128 454.051802,194.919643 C454.901774,195.285981 455.641052,195.239214 455.641052,195.239214 C455.641052,195.239214 456.186615,195.274289 456.870546,195.052148 C458.167247,194.779344 460.108346,193.859603 460.357408,190.815883 C460.72507,186.384757 460.67763,181.637957 460.67763,181.318385 L460.67763,181.318385 Z M329.872873,173.913689 C329.872873,173.913689 329.967754,165.643813 324.045624,165.643813 C318.297441,165.643813 317.819085,172.487311 317.819085,173.890306 C317.819085,175.289404 320.582482,175.191974 320.582482,175.191974 L327.081803,175.191974 C330.208909,175.191974 329.872873,173.913689 329.872873,173.913689 L329.872873,173.913689 Z M222.507577,173.913689 C222.507577,173.913689 222.602457,165.643813 216.680327,165.643813 C210.924238,165.643813 210.445881,172.487311 210.445881,173.890306 C210.445881,175.289404 213.217185,175.191974 213.217185,175.191974 L219.712553,175.191974 C222.835705,175.191974 222.507577,173.913689 222.507577,173.913689 L222.507577,173.913689 Z M263.290418,181.318385 C263.290418,181.637957 263.242978,185.944372 263.606687,190.375498 C263.986209,194.989793 268.251882,194.732577 268.251882,194.732577 C268.251882,194.732577 272.517556,194.989793 272.897078,190.375498 C273.260787,185.944372 273.221253,181.637957 273.213347,181.318385 C273.221253,180.99102 273.260787,176.688502 272.897078,172.257376 C272.517556,167.650875 268.251882,167.896399 268.251882,167.896399 C268.251882,167.896399 263.986209,167.650875 263.606687,172.257376 C263.242978,176.688502 263.290418,180.99102 263.290418,181.318385 L263.290418,181.318385 Z" id="Fill-722"></path>
                            <path d="M510.682927,83.0245876 L510.682927,0 L0,0 L0,137.454545 L358.186095,99.2803054 C351.362599,97.4524628 339.379971,90.7685606 339.379971,67.5561284 L339.379971,67.5444364 L339.379971,67.5288471 C339.383925,33.5130465 361.226228,34.3392781 363.491502,34.3392781 C363.641729,34.3392781 363.823584,34.3548674 364.009392,34.3665594 C364.183339,34.3548674 364.365194,34.3392781 364.519375,34.3392781 C366.776742,34.3392781 388.619045,33.5130465 388.630905,67.5288471 L388.630905,67.5444364 L388.630905,67.5561284 C388.630905,86.0878804 381.894383,94.0072327 375.632264,97.4173869 L393.72283,95.4921113 L393.72283,51.4407141 L393.72283,37.5194905 C393.72283,35.7150317 396.130425,35.9060004 396.130425,35.9060004 L402.985548,35.9060004 L409.848578,35.9060004 C409.848578,35.9060004 412.252219,35.7150317 412.252219,37.5194905 L412.252219,42.289809 C413.679381,42.2391438 414.813995,41.5843942 415.189564,41.3115819 C416.343945,40.458069 420.724265,34.362662 426.563375,34.362662 C439.320862,34.362662 437.996487,51.4407141 437.996487,51.4407141 L437.996487,90.7685606 L510.682927,83.0245876 Z M315.371228,37.5194905 C315.371228,35.7150317 317.778823,35.9060004 317.778823,35.9060004 L324.641853,35.9060004 L331.496975,35.9060004 C331.496975,35.9060004 333.90457,35.7150317 333.90457,37.5194905 L333.90457,97.113396 C333.90457,97.113396 334.023171,99.1633858 330.773511,99.1633858 L324.641853,99.1633858 L318.506241,99.1633858 C315.260534,99.1633858 315.371228,97.113396 315.371228,97.113396 L315.371228,51.4407141 L315.371228,37.5194905 Z M166.424512,37.5194905 C166.424512,35.7150317 168.832107,35.9060004 168.832107,35.9060004 L175.68723,35.9060004 L182.546306,35.9060004 C182.546306,35.9060004 184.945994,35.7150317 184.945994,37.5194905 L184.945994,97.113396 C184.945994,97.113396 185.068548,99.1633858 181.822841,99.1633858 L175.68723,99.1633858 L169.547665,99.1633858 C166.301958,99.1633858 166.424512,97.113396 166.424512,97.113396 L166.424512,51.4407141 L166.424512,37.5194905 Z M72.3504048,72.3186522 C71.7415877,74.3140796 68.6184349,74.1620841 68.6184349,74.1620841 L43.3485705,74.1620841 C43.3485705,79.1974203 43.6055388,84.8290464 49.5276691,84.8290464 C53.7300886,84.8290464 54.5484337,82.0424632 54.916096,80.7368614 C55.3470121,79.0805008 57.7269336,79.3182372 57.7269336,79.3182372 L68.5551811,79.3182372 C70.9034758,79.3182372 70.7809217,81.099312 70.7809217,81.099312 C70.7809217,81.099312 71.9827425,100.784671 48.7607176,100.784671 C25.5426461,100.784671 24.2775715,72.3186522 24.2775715,72.3186522 C24.2775715,72.3186522 19.7074896,34.5419387 48.4642158,34.5419387 C77.4581434,34.5419387 73.026429,70.1010777 72.3504048,72.3186522 L72.3504048,72.3186522 Z M125.337262,99.1633858 L108.658045,99.1633858 C108.658045,99.1633858 106.879034,99.1633858 105.8393,97.3472351 C104.894448,95.6791826 99.9448437,85.1291399 99.9448437,85.1291399 C99.9448437,85.1291399 99.462534,84.1820914 98.5058214,84.1820914 C97.5372487,84.1820914 97.0588923,85.1291399 97.0588923,85.1291399 C97.0588923,85.1291399 92.1171948,95.6791826 91.1644356,97.3472351 C90.1286558,99.1633858 88.3496447,99.1633858 88.3496447,99.1633858 L71.6743806,99.1633858 C69.867696,99.1633858 71.6743806,96.2793697 71.6743806,96.2793697 C71.6743806,96.2793697 87.9187286,69.4736093 88.5117323,68.2264672 C89.1205495,66.9832225 88.5117323,65.6776206 88.5117323,65.6776206 C88.5117323,65.6776206 73.8961678,39.9397256 72.6310932,37.745535 C71.369972,35.5552417 74.8647405,35.9060004 74.8647405,35.9060004 L89.8361073,35.9060004 C92.4888105,35.9060004 93.0897209,37.5662583 93.0897209,37.5662583 C93.0897209,37.5662583 96.8216909,46.1091816 97.4226013,47.4108862 C98.070952,48.9035594 98.5058214,48.7164881 98.5058214,48.7164881 C98.5058214,48.7164881 98.8892971,48.9035594 99.5850881,47.4108862 C100.185999,46.1091816 103.917968,37.5662583 103.917968,37.5662583 C103.917968,37.5662583 104.518879,35.9060004 107.163675,35.9060004 L122.142949,35.9060004 C122.142949,35.9060004 125.633764,35.5552417 124.368689,37.745535 C123.103615,39.9397256 108.48805,65.6776206 108.48805,65.6776206 C108.48805,65.6776206 107.88714,66.9832225 108.48805,68.2264672 C109.088961,69.4736093 125.337262,96.2793697 125.337262,96.2793697 C125.337262,96.2793697 127.139993,99.1633858 125.337262,99.1633858 L125.337262,99.1633858 Z M159.529856,49.4764653 C159.529856,49.4764653 159.624736,51.4407141 157.553177,51.4407141 L153.485171,51.4407141 L153.485171,97.113396 C153.485171,97.113396 153.607725,99.1633858 150.362018,99.1633858 L144.222453,99.1633858 L138.086842,99.1633858 C134.841135,99.1633858 134.963689,97.113396 134.963689,97.113396 L134.963689,51.4407141 L130.89173,51.4407141 C128.824124,51.4407141 128.919004,49.4764653 128.919004,49.4764653 L128.919004,37.7611242 C128.919004,35.9060004 130.749409,35.9060004 130.749409,35.9060004 L134.963689,35.9060004 L134.963689,20.1998046 C134.963689,18.3992432 137.363377,18.5863145 137.363377,18.5863145 L144.222453,18.5863145 L151.077576,18.5863145 C151.077576,18.5863145 153.485171,18.3992432 153.485171,20.1998046 L153.485171,35.9060004 L157.695497,35.9060004 C157.695497,35.9060004 159.529856,35.9060004 159.529856,37.7611242 L159.529856,49.4764653 Z M186.815932,18.4109352 C186.815932,24.3348601 181.830748,29.1402545 175.68723,29.1402545 C169.539758,29.1402545 164.558527,24.3348601 164.558527,18.4109352 C164.558527,12.4792156 169.539758,7.6738212 175.68723,7.6738212 C181.830748,7.6738212 186.815932,12.4792156 186.815932,18.4109352 L186.815932,18.4109352 Z M235.904779,51.4407141 L235.904779,97.113396 C235.904779,97.113396 236.027333,99.1633858 232.777673,99.1633858 L226.646014,99.1633858 L221.506649,99.1633858 C218.260942,99.1633858 218.379543,97.113396 218.379543,97.113396 L218.379543,57.9648262 C218.379543,57.9648262 218.715578,53.6933645 215.489638,53.6933645 C211.528373,53.6933645 210.164465,56.6124565 210.156558,57.9336476 L210.156558,97.113396 C210.156558,97.113396 210.279112,99.1633858 207.025499,99.1633858 L200.897794,99.1633858 L194.758229,99.1633858 C191.504615,99.1633858 191.627169,97.113396 191.627169,97.113396 L191.627169,51.4407141 L191.627169,37.5194905 C191.627169,35.7150317 194.034764,35.9060004 194.034764,35.9060004 L200.897794,35.9060004 L207.748963,35.9060004 C207.748963,35.9060004 210.156558,35.7150317 210.156558,37.5194905 L210.156558,42.289809 C211.587674,42.2391438 212.730194,41.5843942 213.08995,41.3115819 C214.24433,40.458069 218.628604,34.362662 224.475621,34.362662 C237.233107,34.362662 235.904779,51.4407141 235.904779,51.4407141 L235.904779,51.4407141 Z M274.884889,93.2394609 C274.884889,93.2394609 274.920469,94.6152145 274.311652,96.0377359 C272.362646,99.7440864 265.274275,100.098742 263.459684,100.098742 C260.071656,100.098742 240.494627,101.564134 240.478814,67.5483337 L240.478814,67.5288471 C240.494627,33.5130465 262.32507,34.3392781 264.590344,34.3392781 C266.408889,34.3392781 270.23574,35.10705 272.046378,36.5217768 C272.619615,36.9738658 273.781902,37.8039948 274.311652,39.0394449 C274.920469,40.4658637 274.884889,41.83772 274.884889,41.83772 L274.884889,52.2162806 C274.884889,54.1727347 273.386566,53.5218825 273.386566,53.5218825 C273.386566,53.5218825 270.856417,52.2747404 269.172286,52.2747404 C261.012555,52.2747404 261.000695,67.0299903 261.000695,67.5288471 L261.000695,67.5444364 L261.000695,67.5483337 C261.000695,68.0510879 261.012555,82.8024405 269.172286,82.8024405 C270.856417,82.8024405 273.386566,81.5552984 273.386566,81.5552984 C273.386566,81.5552984 274.884889,80.9044461 274.884889,82.8647976 L274.884889,93.2394609 Z M311.034394,49.4764653 C311.034394,49.4764653 311.129275,51.4407141 309.061669,51.4407141 L304.993663,51.4407141 L304.993663,97.113396 C304.993663,97.113396 305.112264,99.1633858 301.866557,99.1633858 L295.726992,99.1633858 L289.587427,99.1633858 C286.345674,99.1633858 286.464274,97.113396 286.464274,97.113396 L286.464274,51.4407141 L282.396269,51.4407141 C280.332616,51.4407141 280.423543,49.4764653 280.423543,49.4764653 L280.423543,37.7611242 C280.423543,35.9060004 282.253948,35.9060004 282.253948,35.9060004 L286.464274,35.9060004 L286.464274,20.1998046 C286.464274,18.3992432 288.871869,18.5863145 288.871869,18.5863145 L295.726992,18.5863145 L302.586068,18.5863145 C302.586068,18.5863145 304.993663,18.3992432 304.993663,20.1998046 L304.993663,35.9060004 L309.20399,35.9060004 C309.20399,35.9060004 311.034394,35.9060004 311.034394,37.7611242 L311.034394,49.4764653 Z M335.766602,18.4109352 C335.766602,24.3348601 330.785371,29.1402545 324.641853,29.1402545 C318.498334,29.1402545 313.505243,24.3348601 313.505243,18.4109352 C313.505243,12.4792156 318.498334,7.6738212 324.641853,7.6738212 C330.785371,7.6738212 335.766602,12.4792156 335.766602,18.4109352 L335.766602,18.4109352 Z M55.3470121,59.4730887 C55.3470121,59.4730887 55.4418926,51.206875 49.5276691,51.206875 C43.7715798,51.206875 43.2853168,58.0544645 43.2853168,59.4536021 C43.2853168,60.8527396 46.0566207,60.7592039 46.0566207,60.7592039 L52.5559413,60.7592039 C55.6830475,60.7592039 55.3470121,59.4730887 55.3470121,59.4730887 L55.3470121,59.4730887 Z M359.111181,66.6831289 C359.111181,67.002709 359.067694,71.7457463 359.42745,76.1808954 C359.652791,78.8427643 361.17088,79.8833485 362.412235,80.2847724 C363.262207,80.6511204 364.009392,80.6043525 364.009392,80.6043525 C364.009392,80.6043525 364.551002,80.6394284 365.234933,80.4172812 C366.531634,80.1444689 368.468779,79.2247016 368.717841,76.1808954 C369.08155,71.7457463 369.03411,67.002709 369.03411,66.6831289 C369.03411,66.3635487 369.08155,62.0492165 368.717841,57.6179648 C368.338319,53.015231 364.072645,53.2607621 364.072645,53.2607621 C364.072645,53.2607621 359.806972,53.015231 359.42745,57.6179648 C359.067694,62.0492165 359.111181,66.3635487 359.111181,66.6831289 L359.111181,66.6831289 Z M412.252219,57.9336476 L412.252219,93.5161705 L420.479157,92.6392737 L420.479157,57.9648262 C420.479157,57.9648262 420.811239,53.6933645 417.589253,53.6933645 C413.620081,53.6933645 412.252219,56.6124565 412.252219,57.9336476 L412.252219,57.9336476 Z" id="Fill-724"></path>
                        </g>
                    </g>
                </g>
                <g id="Group-3" transform="translate(408.500000, 260.000000) rotate(-5.000000) translate(-408.500000, -260.000000) translate(249.000000, 217.000000)">
                    <rect id="Rectangle" fill="#FFC11E" x="0" y="-2.13162821e-14" width="319" height="86"></rect>
                    <path d="M59.1901725,38.8398682 C64.2961696,40.2324127 69.170076,44.6421381 69.170076,52.6105889 C69.170076,67.6191271 54.7030825,67.6964906 53.1558109,67.6964906 L39.1581566,67.6964906 C39.1581566,67.6964906 36.6,67.8421924 36.6,65.1383351 C36.6,63.8141288 36.819197,50.8647515 36.819197,38.6026206 C36.819197,27.8374758 36.6,17.6009822 36.6,16.2342258 C36.6,13.3098817 39.1646034,13.5419723 39.1646034,13.5419723 L53.6973556,13.5419723 C64.6056226,13.5419723 67.1586211,20.9688784 67.1586211,27.312693 C67.1586211,35.0490532 62.1325649,37.4692435 59.1901703,38.4530505 C58.518397,38.7006143 59.1901703,38.8398693 59.1901703,38.8398693 L59.1901725,38.8398682 Z M55.6997842,28.1856106 C55.6997842,21.8972396 48.8466588,22.2466653 48.8466588,22.2466653 L48.9008137,34.894324 C48.9008137,34.894324 55.6997842,35.193463 55.6997842,28.1856106 Z M48.9008126,58.3393624 C48.9008126,58.3393624 56.8692634,58.1562687 56.8692634,51.1406797 C56.8692634,44.4500179 50.3088303,44.176666 48.9008126,44.176666 L48.9008126,58.3393624 Z M98.4742562,56.4645862 C100.445739,56.4026947 100.321957,57.7913721 100.321957,57.7913721 L100.321957,66.4174139 C100.321957,66.4174139 100.298747,67.6835981 98.5026218,67.6835981 L78.4796323,67.6835981 C76.3224778,67.6835981 76.4166031,65.6128324 76.4166031,65.6128324 L76.7840804,40.6127847 L76.4166031,15.6127369 C76.4166031,15.6127369 76.3224767,13.5419712 78.4796323,13.5419712 L98.5026218,13.5419712 C100.298747,13.5419712 100.321957,14.8081554 100.321957,14.8081554 L100.321957,23.4341973 C100.321957,23.4341973 100.445739,24.8228746 98.4742562,24.7609832 C96.8573577,24.7106965 94.5467648,24.713275 93.0987766,24.713275 C91.3142563,24.713275 89.770853,24.7119852 89.0900533,24.7119852 C88.6761588,24.7119852 88.7174191,25.1155658 88.7174191,25.1155658 L88.7174191,34.4391692 C88.7174191,34.4391692 88.7135508,35.0206854 89.1145518,35.0206854 C89.4291639,35.0206854 95.411948,35.0322892 98.0307063,35.0322892 C99.3484658,35.0322892 99.2388673,36.1166694 99.2388673,36.1166694 L99.2388673,45.1088988 C99.2388673,45.1088988 99.3484658,46.1932791 98.0307063,46.1932791 C95.4119491,46.1932791 89.4291639,46.2048828 89.1145518,46.2048828 C88.7135508,46.2048828 88.7174191,46.786399 88.7174191,46.786399 L88.7174191,56.1100024 C88.7174191,56.1100024 88.6761577,56.513583 89.0900533,56.513583 C89.770853,56.513583 91.3142574,56.5122932 93.0987777,56.5122932 C94.5467659,56.5122932 96.8573588,56.5161615 98.4742573,56.4645862 L98.4742562,56.4645862 Z M130.80108,57.1079961 C130.80108,58.2723184 130.764976,59.9897902 130.764976,61.5925054 C130.764976,63.7161362 130.80108,65.679882 130.80108,66.3078165 C130.80108,67.6964939 129.24736,67.6964939 129.24736,67.6964939 L108.962625,67.6964939 C108.962625,67.6964939 107.592,67.6964939 107.592,66.3078165 C107.592,65.6115437 107.799592,44.9993014 107.799592,40.6127858 C107.799592,36.2275588 107.592,15.6668929 107.592,14.9551481 C107.592,13.5303685 108.917496,13.5419663 108.917496,13.5419663 L118.60084,13.5419663 C118.60084,13.5419663 119.892813,13.5303674 119.892813,14.955147 C119.892813,15.8396705 119.806424,38.9688081 119.806424,40.6127847 C119.806424,42.2580499 119.892813,53.609869 119.892813,54.5794927 C119.892813,56.0223239 121.059713,55.9643018 121.059713,55.9643018 L129.309252,55.9643018 C129.309252,55.9643018 130.80108,55.9862217 130.80108,57.1079939 L130.80108,57.1079961 Z M177.071496,38.1977535 C177.472497,51.0246377 174.607464,69.2450553 157.894348,69.2450553 C143.504718,69.2450553 138.048005,55.7837887 138.048005,41.0073411 C138.048005,26.7724392 142.344264,11.9959916 157.120712,11.9959916 C165.367671,11.9959916 172.375524,17.0207568 175.155456,25.4495216 C175.323077,25.9549641 175.658319,26.9813212 174.853737,27.2366215 C174.853737,27.2366215 171.819795,28.0773063 169.700032,28.7348962 C167.58027,29.3937771 164.546327,30.4162659 164.546327,30.4162659 C163.81653,30.7089581 163.575413,29.7058097 163.486445,29.4298793 C162.025562,24.8976619 160.529866,23.1647169 157.430165,23.1647169 C152.633621,23.1647169 150.348816,30.7179823 150.348816,40.697887 C150.348816,52.6892444 153.639348,57.3310603 157.739618,57.3310603 C161.304791,57.3310603 164.382572,54.0082937 164.724261,48.1235022 C164.766812,47.4117573 164.009937,47.3808121 164.009937,47.3808121 L157.806665,47.4285192 C157.806665,47.4285192 156.688761,47.4491493 156.688761,46.6445677 L156.688761,37.2513374 C156.688761,36.2275588 157.831163,36.2881605 157.831163,36.2881605 C157.831163,36.2881605 165.460504,36.4841478 166.99617,36.4841478 C168.530548,36.4841478 176.060605,36.2881605 176.060605,36.2881605 C176.6447,36.2881605 177.010887,36.2275588 177.071489,38.1977513 L177.071496,38.1977535 Z M196.644812,14.9190459 C196.644812,15.6875242 196.514583,36.0444662 196.514583,40.6127869 C196.514583,45.1823973 196.644812,65.5419178 196.644812,66.3078176 C196.644812,67.8434855 194.869317,67.696495 194.869317,67.696495 L186.057602,67.696495 C186.057602,67.696495 184.343999,67.696495 184.343999,66.3078176 C184.343999,65.6115448 184.527093,44.5970128 184.527093,40.6102084 C184.527093,36.6221152 184.343999,15.721049 184.343999,14.9551492 C184.343999,13.4207711 186.098864,13.5419734 186.098864,13.5419734 L194.924761,13.5419734 C194.924761,13.5419734 196.644812,13.3833781 196.644812,14.9190448 L196.644812,14.9190459 Z M237.895984,14.9551448 C237.895984,15.6449708 237.822488,22.8978085 237.822488,30.1957747 C237.822488,37.9733951 237.895984,45.802592 237.895984,45.802592 C237.895984,56.3291984 236.735529,69.2437622 220.875991,69.2437622 C205.016454,69.2437622 203.856,56.695387 203.856,45.802592 C203.856,45.802592 203.904997,34.5822914 203.904997,30.1957758 C203.904997,25.8105499 203.856,15.7507032 203.856,14.9551481 C203.856,13.4929766 205.158287,13.541589 205.158287,13.541589 L214.719138,13.541589 C214.719138,13.541589 216.156813,13.5303685 216.156813,14.9551481 C216.156813,15.6514209 216.039478,25.8840463 216.039478,30.195778 C216.039478,34.5087994 216.156813,45.4931412 216.156813,45.4931412 C216.156813,54.5021324 216.31154,57.6082805 220.875992,57.6082805 C225.440444,57.6082805 225.595172,53.8806436 225.595172,45.4931401 C225.595172,45.4931401 225.761503,37.8521951 225.761503,30.195778 C225.761503,22.9300468 225.595172,15.6488424 225.595172,14.9551492 C225.595172,13.5303696 226.955481,13.541589 226.955481,13.541589 L236.540832,13.541589 C236.540832,13.541589 237.895984,13.5303685 237.895984,14.9551481 L237.895984,14.9551448 Z M276.877017,39.3337471 C276.872569,39.3595834 274.838054,51.1781712 274.436203,53.6253411 C274.033912,56.0738992 272.455694,66.3464961 272.455694,66.3464961 C272.455694,66.3464961 272.280337,67.6964906 271.220456,67.6964906 L264.568476,67.6964906 C263.508595,67.6964906 263.331948,66.3464961 263.331948,66.3464961 C263.331948,66.3464961 261.753731,56.0738992 261.35144,53.6253411 C260.958474,51.232282 259.005478,39.877657 258.915146,39.3525294 C258.879296,39.751914 257.984805,51.2197011 257.769506,53.6614432 C257.550309,56.1461046 256.995869,66.3336014 256.995869,66.3336014 C256.881114,67.7841692 255.942435,67.6964906 255.942435,67.6964906 L246.183018,67.6964906 C246.183018,67.6964906 244.977434,67.6964906 245.124424,66.261396 C245.498349,62.6343323 247.901778,39.8094918 247.609086,42.5507422 C247.327998,45.1798156 250.020251,15.7339403 250.095036,14.955147 C250.240738,13.4194802 251.420533,13.5419723 251.420533,13.5419723 L261.406885,13.5419723 C261.406885,13.5419723 262.558313,13.5290787 262.813614,14.955147 C262.930949,15.6114482 264.349281,24.3844806 264.988821,28.0038077 C265.62836,31.6218462 267.236234,41.4895728 267.893823,42.5829783 C268.552703,41.4895728 270.160577,31.6218451 270.800116,28.0038077 C271.439654,24.3844806 272.856698,15.6114482 272.974033,14.955147 C273.230622,13.5290787 274.380761,13.5419723 274.380761,13.5419723 L284.368401,13.5419723 C284.368401,13.5419723 285.548197,13.4194802 285.693899,14.955147 C285.767394,15.7339403 288.459647,45.1798156 288.178559,42.5507433 C287.887154,39.8094918 290.290584,62.6343323 290.663218,66.261396 C290.810209,67.6964906 289.604626,67.6964906 289.604626,67.6964906 L279.845208,67.6964906 C279.845208,67.6964906 278.90653,67.7841692 278.791774,66.3336014 C278.791774,66.3336014 278.237335,56.1461046 278.018138,53.6614432 C277.799176,51.1781545 276.878997,39.3590488 276.877027,39.3337454 L276.877017,39.3337471 Z" id="BELGIUM" fill="#000000" fill-rule="nonzero"></path>
                </g>
            </g>
        </g>
    </g>
</svg>