<?xml version="1.0" encoding="UTF-8"?>
<svg width="560px" height="350px" viewBox="0 0 560 350" version="1.1" xmlns="http://www.w3.org/2000/svg" xmlns:xlink="http://www.w3.org/1999/xlink">
    <!-- Generator: Sketch 52.6 (67491) - http://www.bohemiancoding.com/sketch -->
    <defs>
        <rect id="path-1" x="0" y="0" width="484" height="142"></rect>
    </defs>
    <g id="Page-1" stroke="none" stroke-width="1" fill="none" fill-rule="evenodd">
        <g id="Custom-Preset" transform="translate(-122.000000, -76.000000)">
            <g id="Group-2" transform="translate(122.000000, 76.000000)">
                <g id="Group" transform="translate(107.000000, 243.000000)">
                    <g id="NAMUR">
                        <mask id="mask-2" fill="white">
                            <use xlink:href="#path-1"></use>
                        </mask>
                        <g id="Mask"></g>
                        <path d="M76.9599246,48.2105113 C76.9612,48.054012 77.1527893,24.5512604 77.2295784,19.378139 C77.1552851,14.3059458 76.9599205,-8.3113691 76.9599205,-9.47701162 C76.9599205,-12.4378529 80.1297817,-12.4900868 80.1297817,-12.4900868 L99.2947829,-12.4900868 C99.2947829,-12.4900868 102.549945,-12.5148299 102.549945,-9.47701162 C102.549938,-7.95672281 102.219744,39.2298073 102.219744,45.2284668 C102.219744,51.2298764 102.549938,98.5318719 102.549938,100.013668 C102.549945,102.974511 99.6359769,102.974511 99.6359769,102.974511 L79.042888,102.974511 C79.042888,102.974511 75.3089459,102.974511 74.1395108,100.013668 C73.5671748,98.5676104 61.5811398,66.6608961 63.1413063,70.5564514 C64.7014729,74.4520068 51.3698962,41.1184784 51.3698962,41.1184784 C51.3698962,41.1184784 51.2075496,60.2691042 51.2075496,70.5564491 C51.2075496,80.843794 51.3698962,98.5813557 51.3698962,100.013665 C51.3698962,102.974509 47.9578925,102.974509 47.9578925,102.974509 L28.8231591,102.974509 C28.8231591,102.974509 25.7798742,102.974511 25.7798742,100.013665 C25.7798742,98.5318672 26.2476491,50.9961955 26.2476491,45.2724506 C26.2476491,39.5459581 25.7798742,-7.95672515 25.7798742,-9.47700928 C25.7798742,-12.5148275 28.2618306,-12.4900868 28.2618306,-12.4900868 L50.258242,-12.4900868 C50.258242,-12.4900868 53.0016036,-12.5148299 54.2480844,-9.47701162 C54.8589433,-7.98971828 63.2073446,13.635151 65.3260895,19.4358729 C67.4354887,25.2185177 76.9006762,48.0682881 76.9596415,48.2106285 L76.9599246,48.2105113 Z M194.098952,98.7655434 C195.111545,103.287907 189.966025,102.974504 189.966025,102.974504 L169.895742,102.974504 C166.802924,102.974504 166.20032,100.024658 166.20032,100.024658 L163.52575,85.0500001 C162.975426,82.867169 160.947487,83.0156228 160.947487,83.0156228 L143.32339,83.0156228 C143.32339,83.0156228 141.295451,82.867169 140.74788,85.0500001 L138.070559,100.024658 C138.070559,100.024658 137.467955,102.974504 134.37514,102.974504 L114.307609,102.974504 C114.307609,102.974504 109.159337,103.28516 110.17193,98.7655457 C110.17193,98.7655457 116.902381,72.0547355 123.299887,45.2284621 C129.446995,19.4523659 135.258407,-6.43919338 135.756449,-8.46532065 C136.769043,-12.5945521 141.606384,-12.4900844 141.606384,-12.4900844 L162.664495,-12.4900844 C162.664495,-12.4900844 167.501837,-12.5945545 168.51443,-8.46532065 C169.015223,-6.43369335 174.854152,19.5046021 181.01777,45.360423 C187.396016,72.1069693 194.098949,98.7655434 194.098949,98.7655434 L194.098952,98.7655434 Z M156.998918,65.8801266 C156.998918,65.8801266 160.014687,66.1165551 159.568927,62.7873269 L152.216612,11.3286067 C152.216612,11.3286067 152.167081,10.9464744 152.136814,10.9464744 C152.106546,10.9464744 152.057015,11.3286067 152.057015,11.3286067 L144.701947,62.7845768 C144.258937,66.1138051 147.271957,65.8801266 147.271957,65.8801266 L156.998918,65.8801266 Z M298.883407,99.9146882 C299.197091,102.974499 296.624331,102.974499 296.624331,102.974499 L275.797354,102.974499 C275.797354,102.974499 273.794178,103.161442 273.549286,100.06864 C273.549286,100.06864 272.36609,78.3475504 271.898316,73.049924 C271.430541,67.74955 269.463135,42.5012923 269.463135,42.5012923 C269.463135,42.5012923 265.112831,67.74955 264.254327,72.9729494 C263.395823,78.1935988 260.027845,100.096133 260.027845,100.096133 C260.027845,100.096133 259.653626,102.974499 257.391799,102.974499 L243.196216,102.974499 C240.934389,102.974499 240.557417,100.096133 240.557417,100.096133 C240.557417,100.096133 237.189439,78.1935988 236.330935,72.9729494 C235.472431,67.74955 231.12488,42.5012923 231.12488,42.5012923 C231.12488,42.5012923 229.154724,67.74955 228.686949,73.049924 C228.219174,78.3475504 227.035979,100.06864 227.035979,100.06864 C226.791086,103.161442 224.78791,102.974499 224.78791,102.974499 L203.960933,102.974499 C203.960933,102.974499 201.388171,102.974499 201.701855,99.9146882 C202.499823,92.1813091 207.628835,43.5157333 207.004218,49.3604413 C206.404367,54.9659731 212.149738,-7.81652367 212.309332,-9.47701396 C212.620266,-12.7512584 215.137995,-12.4900891 215.137995,-12.4900891 L236.449256,-12.4900891 C236.449256,-12.4900891 238.90645,-12.5175799 239.45127,-9.47701396 C239.701668,-8.07769294 242.728445,10.6275712 244.093247,18.3444549 C245.458049,26.058591 248.889313,47.0978879 250.292636,49.4291729 C251.698711,47.0978879 255.129975,26.0585886 256.494777,18.3444549 C257.859576,10.6275712 260.883603,-8.07769294 261.134001,-9.47701396 C261.681572,-12.5175799 264.136013,-12.4900891 264.136013,-12.4900891 L285.450024,-12.4900891 C285.450024,-12.4900891 287.967754,-12.7512584 288.278687,-9.47701396 C288.435528,-7.81652367 294.180902,54.9659731 293.581048,49.3604436 C292.959179,43.5157333 298.088191,92.1813091 298.883407,99.9146882 Z M379.013653,-9.47701865 C379.013653,-8.00621836 378.856812,7.45778983 378.856812,23.018018 C378.856812,39.6009326 379.013653,56.2938149 379.013653,56.2938149 C379.013653,78.7379304 376.5372,106.273487 342.69233,106.273487 C308.847463,106.273487 306.371009,79.5186929 306.371009,56.2938149 C306.371009,56.2938149 306.47557,32.3706513 306.47557,23.0180204 C306.47557,13.6681395 306.371009,-7.78078287 306.371009,-9.47701162 C306.371009,-12.5945545 309.150141,-12.4900868 309.150141,-12.4900868 L329.553368,-12.4900868 C329.553368,-12.4900868 332.62142,-12.5148299 332.62142,-9.47701162 C332.62142,-7.99246595 332.371023,13.8248434 332.371023,23.0180251 C332.371023,32.2139568 332.62142,55.6340249 332.62142,55.6340249 C332.62142,74.8423845 332.951614,81.4651026 342.692332,81.4651026 C352.433051,81.4651026 352.763244,73.5172881 352.763244,55.6340225 C352.763244,55.6340225 353.118203,39.342518 353.118203,23.0180251 C353.118203,7.52652611 352.763244,-7.99796364 352.763244,-9.47700928 C352.763244,-12.5148275 355.666198,-12.4900868 355.666198,-12.4900868 L376.121708,-12.4900868 C376.121708,-12.4900868 379.013656,-12.5148299 379.013656,-9.47701162 L379.013653,-9.47701865 Z M411.172785,61.0501831 C411.170811,61.1264921 410.817834,74.7819609 410.817834,80.6870901 C410.817834,86.6087751 411.172793,98.6198419 411.172793,100.013665 C411.172793,102.974509 408.27259,102.974509 408.27259,102.974509 L389.26443,102.974509 C389.26443,102.974509 386.482548,102.974509 386.482548,100.013665 C386.482548,98.6830734 386.796231,50.5040978 386.86227,45.2587076 C386.796231,40.0188151 386.482548,-8.14916283 386.482548,-9.47700459 C386.482548,-12.4378482 389.368991,-12.5148252 389.368991,-12.5148252 L415.960604,-12.4900844 C423.224868,-12.4900844 450.441098,-9.47700928 450.441098,23.4084051 C450.441098,29.3190924 448.060952,44.8353344 433.229745,51.9556503 C432.742709,52.1920765 431.878703,53.2560013 433.282025,56.6841996 C433.282025,56.6841996 438.273456,69.3083273 442.953953,79.5956722 C447.63445,89.8830171 451.698586,98.5813511 452.312197,100.013661 C453.718265,103.287912 449.489033,102.974509 449.489033,102.974509 L432.230902,102.974509 C432.230902,102.974509 428.601521,102.974509 427.35504,100.013665 C426.755189,98.5923511 422.360859,87.2328336 419.711054,80.5303886 C417.063978,73.8445343 411.197097,61.1026434 411.172868,61.0500254 L411.172785,61.0501831 Z M413.976683,39.5789465 C423.387208,39.5789465 428.601521,31.2022658 428.601521,24.1891676 C428.601521,16.0076769 422.880912,9.14853027 413.470388,9.14853027 C413.470388,9.14853027 411.172788,9.07155333 411.172788,11.3313591 L411.172788,37.0469738 C411.172788,39.4634811 413.976685,39.5789465 413.976685,39.5789465 L413.976683,39.5789465 Z" fill="#000000" mask="url(#mask-2)"></path>
                    </g>
                </g>
                <g id="Group-729" fill="#131111">
                    <path d="M551,231 L551,93.5454545 L397.048333,109.952703 L397.048333,211.549032 C397.048333,211.549032 397.170887,213.606758 393.917273,213.606758 L387.781661,213.606758 L381.650003,213.606758 C378.39639,213.606758 378.518944,211.549032 378.518944,211.549032 L378.518944,165.88544 L378.518944,111.932484 L372.023576,112.62229 L372.023576,211.549032 C372.023576,211.549032 372.146131,213.606758 368.892517,213.606758 L362.760859,213.606758 L356.621294,213.606758 C353.371633,213.606758 353.494187,211.549032 353.494187,211.549032 L353.494187,165.88544 L353.494187,114.594278 L263.58692,124.181411 L263.58692,156.715308 C264.377591,156.695822 265.919401,156.434709 267.382143,154.895311 C269.44975,152.708977 273.399154,148.772797 277.732035,148.772797 C282.057008,148.772797 294.09103,152.116602 294.09103,179.280145 C294.09103,206.443689 282.780473,214.507013 277.732035,214.507013 C274.960731,214.507013 271.975945,214.655107 268.706518,211.778967 C264.974548,208.509209 265.124776,208.13118 264.156203,208.267583 C263.946675,208.302657 263.58692,208.481929 263.58692,208.883341 L263.58692,211.549032 C263.58692,211.549032 263.709474,213.606758 260.463767,213.606758 L254.328155,213.606758 L248.18859,213.606758 C244.942883,213.606758 245.065438,211.549032 245.065438,211.549032 L245.065438,165.88544 L245.065438,126.153398 L40.3170732,147.977766 L40.3170732,231 L551,231 Z M187.812907,167.358584 C187.812907,167.358584 187.872207,168.964234 186.615039,168.964234 C185.527866,168.964234 172.32365,168.017213 172.319697,177.495224 L172.319697,211.549032 C172.319697,211.549032 172.438298,213.602861 169.188637,213.602861 L163.056979,213.602861 L156.917414,213.602861 C153.671707,213.602861 153.790308,211.549032 153.790308,211.549032 L153.790308,167.662567 L153.790308,165.88544 L153.790308,151.956816 C153.790308,150.156306 156.19395,150.343372 156.19395,150.343372 L163.056979,150.343372 L169.912102,150.343372 C169.912102,150.343372 172.319697,150.156306 172.319697,151.956816 L172.319697,156.742588 C173.122229,156.688027 174.751012,156.387942 176.142594,154.848545 C178.071833,152.708977 181.558695,148.79618 186.615039,148.79618 C187.650819,148.79618 187.812907,149.392453 187.812907,150.335577 L187.812907,167.358584 Z M239.503063,186.754991 C238.898199,188.750362 235.775046,188.594474 235.775046,188.594474 L210.505182,188.594474 C210.505182,193.641359 210.76215,199.272825 216.680327,199.272825 C220.890653,199.272825 221.708998,196.486321 222.068754,195.180756 C222.507577,193.520545 224.887498,193.754378 224.887498,193.754378 L235.715746,193.754378 C238.060087,193.754378 237.941486,195.531505 237.941486,195.531505 C237.941486,195.531505 239.143307,215.227997 215.921282,215.227997 C192.699257,215.227997 191.438136,186.754991 191.438136,186.754991 C191.438136,186.754991 186.868054,148.983246 215.616874,148.983246 C244.618708,148.983246 240.179087,184.545274 239.503063,186.754991 Z M346.876266,186.754991 C346.267449,188.750362 343.144296,188.594474 343.144296,188.594474 L317.874432,188.594474 C317.874432,193.641359 318.1314,199.272825 324.045624,199.272825 C328.25595,199.272825 329.074295,196.486321 329.438004,195.180756 C329.872873,193.520545 332.252795,193.754378 332.252795,193.754378 L343.081043,193.754378 C345.429337,193.754378 345.306783,195.531505 345.306783,195.531505 C345.306783,195.531505 346.508604,215.227997 323.286579,215.227997 C300.068507,215.227997 298.803433,186.754991 298.803433,186.754991 C298.803433,186.754991 294.233351,148.983246 322.990077,148.983246 C351.984005,148.983246 347.544384,184.545274 346.876266,186.754991 Z M405.690373,151.964611 C405.690373,150.156306 408.094015,150.351166 408.094015,150.351166 L414.957044,150.351166 L421.812167,150.351166 C421.812167,150.351166 424.219762,150.156306 424.219762,151.964611 L424.219762,211.549032 C424.219762,211.549032 424.338363,213.606758 421.088703,213.606758 L414.957044,213.606758 L408.817479,213.606758 C405.571772,213.606758 405.690373,211.549032 405.690373,211.549032 L405.690373,165.88544 L405.690373,151.964611 Z M426.085747,132.856597 C426.085747,138.780354 421.100563,143.585612 414.957044,143.585612 C408.813526,143.585612 403.824388,138.780354 403.824388,132.856597 C403.824388,126.925046 408.813526,122.119788 414.957044,122.119788 C421.100563,122.119788 426.085747,126.925046 426.085747,132.856597 Z M480.266519,182.179669 L480.266519,182.183566 C480.266519,213.801619 460.661816,214.639519 457.269835,214.639519 C456.858686,214.639519 456.309169,214.659005 455.708259,214.659005 C455.059908,214.659005 454.383884,214.612238 453.976688,214.612238 C450.584707,214.612238 431.019538,211.74779 431.019538,182.183566 L431.019538,182.179669 L431.019538,182.16408 C431.027445,148.153141 452.869748,148.979349 455.127115,148.979349 C455.281296,148.979349 455.46315,148.991041 455.641052,149.002732 C455.822906,148.991041 456.004761,148.979349 456.154988,148.979349 C458.420262,148.979349 480.254659,148.153141 480.266519,182.16408 L480.266519,182.179669 Z M530.442538,165.88544 L530.442538,211.549032 C530.442538,211.549032 530.565092,213.606758 527.311479,213.606758 L521.171914,213.606758 L516.044409,213.606758 C512.790795,213.606758 512.913349,211.549032 512.913349,211.549032 L512.913349,172.409367 C512.913349,172.409367 513.249384,168.138026 510.027398,168.138026 C506.066133,168.138026 504.698271,171.057035 504.690364,172.374292 L504.690364,211.549032 C504.690364,211.549032 504.812918,213.606758 501.563258,213.606758 L495.4316,213.606758 L489.292035,213.606758 C486.042375,213.606758 486.160975,211.549032 486.160975,211.549032 L486.160975,165.88544 L486.160975,151.964611 C486.160975,150.156306 488.56857,150.351166 488.56857,150.351166 L495.4316,150.351166 L502.286723,150.351166 C502.286723,150.351166 504.690364,150.156306 504.690364,151.964611 L504.690364,156.734794 C506.125433,156.680233 507.256094,156.025502 507.627709,155.752697 C508.78209,154.903106 513.162411,148.803975 519.009427,148.803975 C531.759007,148.803975 530.442538,165.88544 530.442538,165.88544 Z M460.67763,181.318385 C460.67763,180.99102 460.72507,176.688502 460.357408,172.257376 C459.981839,167.650875 455.716165,167.896399 455.716165,167.896399 C455.716165,167.896399 451.450492,167.650875 451.07097,172.257376 C450.703307,176.688502 450.750748,180.99102 450.750748,181.318385 C450.750748,181.637957 450.703307,186.384757 451.07097,190.815883 C451.288404,193.481573 452.806494,194.522128 454.051802,194.919643 C454.901774,195.285981 455.641052,195.239214 455.641052,195.239214 C455.641052,195.239214 456.186615,195.274289 456.870546,195.052148 C458.167247,194.779344 460.108346,193.859603 460.357408,190.815883 C460.72507,186.384757 460.67763,181.637957 460.67763,181.318385 Z M329.872873,173.913689 C329.872873,173.913689 329.967754,165.643813 324.045624,165.643813 C318.297441,165.643813 317.819085,172.487311 317.819085,173.890306 C317.819085,175.289404 320.582482,175.191974 320.582482,175.191974 L327.081803,175.191974 C330.208909,175.191974 329.872873,173.913689 329.872873,173.913689 Z M222.507577,173.913689 C222.507577,173.913689 222.602457,165.643813 216.680327,165.643813 C210.924238,165.643813 210.445881,172.487311 210.445881,173.890306 C210.445881,175.289404 213.217185,175.191974 213.217185,175.191974 L219.712553,175.191974 C222.835705,175.191974 222.507577,173.913689 222.507577,173.913689 Z M263.290418,181.318385 C263.290418,181.637957 263.242978,185.944372 263.606687,190.375498 C263.986209,194.989793 268.251882,194.732577 268.251882,194.732577 C268.251882,194.732577 272.517556,194.989793 272.897078,190.375498 C273.260787,185.944372 273.221253,181.637957 273.213347,181.318385 C273.221253,180.99102 273.260787,176.688502 272.897078,172.257376 C272.517556,167.650875 268.251882,167.896399 268.251882,167.896399 C268.251882,167.896399 263.986209,167.650875 263.606687,172.257376 C263.242978,176.688502 263.290418,180.99102 263.290418,181.318385 Z" id="Fill-722"></path>
                    <path d="M510.682927,83.0245876 L510.682927,0 L0,0 L0,137.454545 L358.186095,99.2803054 C351.362599,97.4524628 339.379971,90.7685606 339.379971,67.5561284 L339.379971,67.5444364 L339.379971,67.5288471 C339.383925,33.5130465 361.226228,34.3392781 363.491502,34.3392781 C363.641729,34.3392781 363.823584,34.3548674 364.009392,34.3665594 C364.183339,34.3548674 364.365194,34.3392781 364.519375,34.3392781 C366.776742,34.3392781 388.619045,33.5130465 388.630905,67.5288471 L388.630905,67.5444364 L388.630905,67.5561284 C388.630905,86.0878804 381.894383,94.0072327 375.632264,97.4173869 L393.72283,95.4921113 L393.72283,51.4407141 L393.72283,37.5194905 C393.72283,35.7150317 396.130425,35.9060004 396.130425,35.9060004 L402.985548,35.9060004 L409.848578,35.9060004 C409.848578,35.9060004 412.252219,35.7150317 412.252219,37.5194905 L412.252219,42.289809 C413.679381,42.2391438 414.813995,41.5843942 415.189564,41.3115819 C416.343945,40.458069 420.724265,34.362662 426.563375,34.362662 C439.320862,34.362662 437.996487,51.4407141 437.996487,51.4407141 L437.996487,90.7685606 L510.682927,83.0245876 Z M315.371228,37.5194905 C315.371228,35.7150317 317.778823,35.9060004 317.778823,35.9060004 L324.641853,35.9060004 L331.496975,35.9060004 C331.496975,35.9060004 333.90457,35.7150317 333.90457,37.5194905 L333.90457,97.113396 C333.90457,97.113396 334.023171,99.1633858 330.773511,99.1633858 L324.641853,99.1633858 L318.506241,99.1633858 C315.260534,99.1633858 315.371228,97.113396 315.371228,97.113396 L315.371228,51.4407141 L315.371228,37.5194905 Z M166.424512,37.5194905 C166.424512,35.7150317 168.832107,35.9060004 168.832107,35.9060004 L175.68723,35.9060004 L182.546306,35.9060004 C182.546306,35.9060004 184.945994,35.7150317 184.945994,37.5194905 L184.945994,97.113396 C184.945994,97.113396 185.068548,99.1633858 181.822841,99.1633858 L175.68723,99.1633858 L169.547665,99.1633858 C166.301958,99.1633858 166.424512,97.113396 166.424512,97.113396 L166.424512,51.4407141 L166.424512,37.5194905 Z M72.3504048,72.3186522 C71.7415877,74.3140796 68.6184349,74.1620841 68.6184349,74.1620841 L43.3485705,74.1620841 C43.3485705,79.1974203 43.6055388,84.8290464 49.5276691,84.8290464 C53.7300886,84.8290464 54.5484337,82.0424632 54.916096,80.7368614 C55.3470121,79.0805008 57.7269336,79.3182372 57.7269336,79.3182372 L68.5551811,79.3182372 C70.9034758,79.3182372 70.7809217,81.099312 70.7809217,81.099312 C70.7809217,81.099312 71.9827425,100.784671 48.7607176,100.784671 C25.5426461,100.784671 24.2775715,72.3186522 24.2775715,72.3186522 C24.2775715,72.3186522 19.7074896,34.5419387 48.4642158,34.5419387 C77.4581434,34.5419387 73.026429,70.1010777 72.3504048,72.3186522 Z M125.337262,99.1633858 L108.658045,99.1633858 C108.658045,99.1633858 106.879034,99.1633858 105.8393,97.3472351 C104.894448,95.6791826 99.9448437,85.1291399 99.9448437,85.1291399 C99.9448437,85.1291399 99.462534,84.1820914 98.5058214,84.1820914 C97.5372487,84.1820914 97.0588923,85.1291399 97.0588923,85.1291399 C97.0588923,85.1291399 92.1171948,95.6791826 91.1644356,97.3472351 C90.1286558,99.1633858 88.3496447,99.1633858 88.3496447,99.1633858 L71.6743806,99.1633858 C69.867696,99.1633858 71.6743806,96.2793697 71.6743806,96.2793697 C71.6743806,96.2793697 87.9187286,69.4736093 88.5117323,68.2264672 C89.1205495,66.9832225 88.5117323,65.6776206 88.5117323,65.6776206 C88.5117323,65.6776206 73.8961678,39.9397256 72.6310932,37.745535 C71.369972,35.5552417 74.8647405,35.9060004 74.8647405,35.9060004 L89.8361073,35.9060004 C92.4888105,35.9060004 93.0897209,37.5662583 93.0897209,37.5662583 C93.0897209,37.5662583 96.8216909,46.1091816 97.4226013,47.4108862 C98.070952,48.9035594 98.5058214,48.7164881 98.5058214,48.7164881 C98.5058214,48.7164881 98.8892971,48.9035594 99.5850881,47.4108862 C100.185999,46.1091816 103.917968,37.5662583 103.917968,37.5662583 C103.917968,37.5662583 104.518879,35.9060004 107.163675,35.9060004 L122.142949,35.9060004 C122.142949,35.9060004 125.633764,35.5552417 124.368689,37.745535 C123.103615,39.9397256 108.48805,65.6776206 108.48805,65.6776206 C108.48805,65.6776206 107.88714,66.9832225 108.48805,68.2264672 C109.088961,69.4736093 125.337262,96.2793697 125.337262,96.2793697 C125.337262,96.2793697 127.139993,99.1633858 125.337262,99.1633858 Z M159.529856,49.4764653 C159.529856,49.4764653 159.624736,51.4407141 157.553177,51.4407141 L153.485171,51.4407141 L153.485171,97.113396 C153.485171,97.113396 153.607725,99.1633858 150.362018,99.1633858 L144.222453,99.1633858 L138.086842,99.1633858 C134.841135,99.1633858 134.963689,97.113396 134.963689,97.113396 L134.963689,51.4407141 L130.89173,51.4407141 C128.824124,51.4407141 128.919004,49.4764653 128.919004,49.4764653 L128.919004,37.7611242 C128.919004,35.9060004 130.749409,35.9060004 130.749409,35.9060004 L134.963689,35.9060004 L134.963689,20.1998046 C134.963689,18.3992432 137.363377,18.5863145 137.363377,18.5863145 L144.222453,18.5863145 L151.077576,18.5863145 C151.077576,18.5863145 153.485171,18.3992432 153.485171,20.1998046 L153.485171,35.9060004 L157.695497,35.9060004 C157.695497,35.9060004 159.529856,35.9060004 159.529856,37.7611242 L159.529856,49.4764653 Z M186.815932,18.4109352 C186.815932,24.3348601 181.830748,29.1402545 175.68723,29.1402545 C169.539758,29.1402545 164.558527,24.3348601 164.558527,18.4109352 C164.558527,12.4792156 169.539758,7.6738212 175.68723,7.6738212 C181.830748,7.6738212 186.815932,12.4792156 186.815932,18.4109352 Z M235.904779,51.4407141 L235.904779,97.113396 C235.904779,97.113396 236.027333,99.1633858 232.777673,99.1633858 L226.646014,99.1633858 L221.506649,99.1633858 C218.260942,99.1633858 218.379543,97.113396 218.379543,97.113396 L218.379543,57.9648262 C218.379543,57.9648262 218.715578,53.6933645 215.489638,53.6933645 C211.528373,53.6933645 210.164465,56.6124565 210.156558,57.9336476 L210.156558,97.113396 C210.156558,97.113396 210.279112,99.1633858 207.025499,99.1633858 L200.897794,99.1633858 L194.758229,99.1633858 C191.504615,99.1633858 191.627169,97.113396 191.627169,97.113396 L191.627169,51.4407141 L191.627169,37.5194905 C191.627169,35.7150317 194.034764,35.9060004 194.034764,35.9060004 L200.897794,35.9060004 L207.748963,35.9060004 C207.748963,35.9060004 210.156558,35.7150317 210.156558,37.5194905 L210.156558,42.289809 C211.587674,42.2391438 212.730194,41.5843942 213.08995,41.3115819 C214.24433,40.458069 218.628604,34.362662 224.475621,34.362662 C237.233107,34.362662 235.904779,51.4407141 235.904779,51.4407141 Z M274.884889,93.2394609 C274.884889,93.2394609 274.920469,94.6152145 274.311652,96.0377359 C272.362646,99.7440864 265.274275,100.098742 263.459684,100.098742 C260.071656,100.098742 240.494627,101.564134 240.478814,67.5483337 L240.478814,67.5288471 C240.494627,33.5130465 262.32507,34.3392781 264.590344,34.3392781 C266.408889,34.3392781 270.23574,35.10705 272.046378,36.5217768 C272.619615,36.9738658 273.781902,37.8039948 274.311652,39.0394449 C274.920469,40.4658637 274.884889,41.83772 274.884889,41.83772 L274.884889,52.2162806 C274.884889,54.1727347 273.386566,53.5218825 273.386566,53.5218825 C273.386566,53.5218825 270.856417,52.2747404 269.172286,52.2747404 C261.012555,52.2747404 261.000695,67.0299903 261.000695,67.5288471 L261.000695,67.5444364 L261.000695,67.5483337 C261.000695,68.0510879 261.012555,82.8024405 269.172286,82.8024405 C270.856417,82.8024405 273.386566,81.5552984 273.386566,81.5552984 C273.386566,81.5552984 274.884889,80.9044461 274.884889,82.8647976 L274.884889,93.2394609 Z M311.034394,49.4764653 C311.034394,49.4764653 311.129275,51.4407141 309.061669,51.4407141 L304.993663,51.4407141 L304.993663,97.113396 C304.993663,97.113396 305.112264,99.1633858 301.866557,99.1633858 L295.726992,99.1633858 L289.587427,99.1633858 C286.345674,99.1633858 286.464274,97.113396 286.464274,97.113396 L286.464274,51.4407141 L282.396269,51.4407141 C280.332616,51.4407141 280.423543,49.4764653 280.423543,49.4764653 L280.423543,37.7611242 C280.423543,35.9060004 282.253948,35.9060004 282.253948,35.9060004 L286.464274,35.9060004 L286.464274,20.1998046 C286.464274,18.3992432 288.871869,18.5863145 288.871869,18.5863145 L295.726992,18.5863145 L302.586068,18.5863145 C302.586068,18.5863145 304.993663,18.3992432 304.993663,20.1998046 L304.993663,35.9060004 L309.20399,35.9060004 C309.20399,35.9060004 311.034394,35.9060004 311.034394,37.7611242 L311.034394,49.4764653 Z M335.766602,18.4109352 C335.766602,24.3348601 330.785371,29.1402545 324.641853,29.1402545 C318.498334,29.1402545 313.505243,24.3348601 313.505243,18.4109352 C313.505243,12.4792156 318.498334,7.6738212 324.641853,7.6738212 C330.785371,7.6738212 335.766602,12.4792156 335.766602,18.4109352 Z M55.3470121,59.4730887 C55.3470121,59.4730887 55.4418926,51.206875 49.5276691,51.206875 C43.7715798,51.206875 43.2853168,58.0544645 43.2853168,59.4536021 C43.2853168,60.8527396 46.0566207,60.7592039 46.0566207,60.7592039 L52.5559413,60.7592039 C55.6830475,60.7592039 55.3470121,59.4730887 55.3470121,59.4730887 Z M359.111181,66.6831289 C359.111181,67.002709 359.067694,71.7457463 359.42745,76.1808954 C359.652791,78.8427643 361.17088,79.8833485 362.412235,80.2847724 C363.262207,80.6511204 364.009392,80.6043525 364.009392,80.6043525 C364.009392,80.6043525 364.551002,80.6394284 365.234933,80.4172812 C366.531634,80.1444689 368.468779,79.2247016 368.717841,76.1808954 C369.08155,71.7457463 369.03411,67.002709 369.03411,66.6831289 C369.03411,66.3635487 369.08155,62.0492165 368.717841,57.6179648 C368.338319,53.015231 364.072645,53.2607621 364.072645,53.2607621 C364.072645,53.2607621 359.806972,53.015231 359.42745,57.6179648 C359.067694,62.0492165 359.111181,66.3635487 359.111181,66.6831289 Z M412.252219,57.9336476 L412.252219,93.5161705 L420.479157,92.6392737 L420.479157,57.9648262 C420.479157,57.9648262 420.811239,53.6933645 417.589253,53.6933645 C413.620081,53.6933645 412.252219,56.6124565 412.252219,57.9336476 Z" id="Fill-724"></path>
                </g>
            </g>
        </g>
    </g>
</svg>
